<mxfile host="Electron" modified="2023-11-16T20:02:52.281Z" agent="Mozilla/5.0 (Macintosh; Intel Mac OS X 10_15_7) AppleWebKit/537.36 (KHTML, like Gecko) draw.io/22.1.2 Chrome/114.0.5735.289 Electron/25.9.4 Safari/537.36" etag="E_mO-PVzbiyNKidzlhdD" version="22.1.2" type="device">
  <diagram name="PÃ¡gina-1" id="brQwI_gVT36yTC5pFLXX">
    <mxGraphModel dx="2565" dy="1858" grid="1" gridSize="10" guides="1" tooltips="1" connect="1" arrows="1" fold="1" page="1" pageScale="1" pageWidth="827" pageHeight="1169" math="0" shadow="0">
      <root>
        <mxCell id="0" />
        <mxCell id="1" parent="0" />
        <mxCell id="vG2wr5A-QDdZpE7f0OCt-1" value="" style="shape=parallelogram;perimeter=parallelogramPerimeter;whiteSpace=wrap;html=1;fixedSize=1;size=40;rotation=-90;fillColor=#dae8fc;strokeColor=#6c8ebf;" vertex="1" parent="1">
          <mxGeometry x="130" y="310" width="120" height="60" as="geometry" />
        </mxCell>
        <mxCell id="vG2wr5A-QDdZpE7f0OCt-2" value="" style="shape=parallelogram;perimeter=parallelogramPerimeter;whiteSpace=wrap;html=1;fixedSize=1;size=40;rotation=-90;fillColor=#dae8fc;strokeColor=#6c8ebf;" vertex="1" parent="1">
          <mxGeometry x="190" y="350" width="120" height="60" as="geometry" />
        </mxCell>
        <mxCell id="vG2wr5A-QDdZpE7f0OCt-3" value="" style="shape=parallelogram;perimeter=parallelogramPerimeter;whiteSpace=wrap;html=1;fixedSize=1;size=40;rotation=-90;fillColor=#dae8fc;strokeColor=#6c8ebf;" vertex="1" parent="1">
          <mxGeometry x="250" y="390" width="120" height="60" as="geometry" />
        </mxCell>
        <mxCell id="vG2wr5A-QDdZpE7f0OCt-4" value="" style="shape=parallelogram;perimeter=parallelogramPerimeter;whiteSpace=wrap;html=1;fixedSize=1;size=40;rotation=-90;fillColor=#dae8fc;strokeColor=#6c8ebf;" vertex="1" parent="1">
          <mxGeometry x="130" y="390" width="120" height="60" as="geometry" />
        </mxCell>
        <mxCell id="vG2wr5A-QDdZpE7f0OCt-5" value="" style="shape=parallelogram;perimeter=parallelogramPerimeter;whiteSpace=wrap;html=1;fixedSize=1;size=40;rotation=-90;fillColor=#dae8fc;strokeColor=#6c8ebf;" vertex="1" parent="1">
          <mxGeometry x="190" y="430" width="120" height="60" as="geometry" />
        </mxCell>
        <mxCell id="vG2wr5A-QDdZpE7f0OCt-6" value="" style="shape=parallelogram;perimeter=parallelogramPerimeter;whiteSpace=wrap;html=1;fixedSize=1;size=40;rotation=-90;fillColor=#dae8fc;strokeColor=#6c8ebf;" vertex="1" parent="1">
          <mxGeometry x="250" y="470" width="120" height="60" as="geometry" />
        </mxCell>
        <mxCell id="vG2wr5A-QDdZpE7f0OCt-7" value="" style="shape=parallelogram;perimeter=parallelogramPerimeter;whiteSpace=wrap;html=1;fixedSize=1;size=40;rotation=-90;fillColor=#C9D6E8;strokeColor=#6c8ebf;flipH=1;" vertex="1" parent="1">
          <mxGeometry x="310" y="390" width="120" height="60" as="geometry" />
        </mxCell>
        <mxCell id="vG2wr5A-QDdZpE7f0OCt-9" value="" style="shape=parallelogram;perimeter=parallelogramPerimeter;whiteSpace=wrap;html=1;fixedSize=1;size=40;rotation=-90;fillColor=#C9D6E8;strokeColor=#6c8ebf;flipH=1;" vertex="1" parent="1">
          <mxGeometry x="310" y="470" width="120" height="60" as="geometry" />
        </mxCell>
        <mxCell id="vG2wr5A-QDdZpE7f0OCt-10" value="" style="shape=parallelogram;perimeter=parallelogramPerimeter;whiteSpace=wrap;html=1;fixedSize=1;size=40;rotation=-90;fillColor=#C9D6E8;strokeColor=#6c8ebf;flipH=1;" vertex="1" parent="1">
          <mxGeometry x="370" y="350" width="120" height="60" as="geometry" />
        </mxCell>
        <mxCell id="vG2wr5A-QDdZpE7f0OCt-11" value="" style="shape=parallelogram;perimeter=parallelogramPerimeter;whiteSpace=wrap;html=1;fixedSize=1;size=40;rotation=-90;fillColor=#C9D6E8;strokeColor=#6c8ebf;flipH=1;" vertex="1" parent="1">
          <mxGeometry x="370" y="430" width="120" height="60" as="geometry" />
        </mxCell>
        <mxCell id="vG2wr5A-QDdZpE7f0OCt-15" value="" style="rhombus;whiteSpace=wrap;html=1;fillColor=#E8F0FC;strokeColor=#6c8ebf;" vertex="1" parent="1">
          <mxGeometry x="280" y="320" width="120" height="80" as="geometry" />
        </mxCell>
        <mxCell id="vG2wr5A-QDdZpE7f0OCt-16" value="" style="rhombus;whiteSpace=wrap;html=1;fillColor=#E8F0FC;strokeColor=#6c8ebf;" vertex="1" parent="1">
          <mxGeometry x="220" y="280" width="120" height="80" as="geometry" />
        </mxCell>
        <mxCell id="vG2wr5A-QDdZpE7f0OCt-17" value="" style="rhombus;whiteSpace=wrap;html=1;fillColor=#E8F0FC;strokeColor=#6c8ebf;" vertex="1" parent="1">
          <mxGeometry x="160" y="240" width="120" height="80" as="geometry" />
        </mxCell>
        <mxCell id="vG2wr5A-QDdZpE7f0OCt-18" value="" style="rhombus;whiteSpace=wrap;html=1;fillColor=#E8F0FC;strokeColor=#6c8ebf;" vertex="1" parent="1">
          <mxGeometry x="340" y="280" width="120" height="80" as="geometry" />
        </mxCell>
        <mxCell id="vG2wr5A-QDdZpE7f0OCt-19" value="" style="rhombus;whiteSpace=wrap;html=1;fillColor=#E8F0FC;strokeColor=#6c8ebf;" vertex="1" parent="1">
          <mxGeometry x="280" y="240" width="120" height="80" as="geometry" />
        </mxCell>
        <mxCell id="vG2wr5A-QDdZpE7f0OCt-20" value="" style="rhombus;whiteSpace=wrap;html=1;fillColor=#E8F0FC;strokeColor=#6c8ebf;" vertex="1" parent="1">
          <mxGeometry x="220" y="200" width="120" height="80" as="geometry" />
        </mxCell>
        <mxCell id="vG2wr5A-QDdZpE7f0OCt-21" value="" style="shape=parallelogram;perimeter=parallelogramPerimeter;whiteSpace=wrap;html=1;fixedSize=1;size=40;rotation=-90;fillColor=#d5e8d4;strokeColor=#82b366;" vertex="1" parent="1">
          <mxGeometry x="400" y="130" width="120" height="60" as="geometry" />
        </mxCell>
        <mxCell id="vG2wr5A-QDdZpE7f0OCt-22" value="" style="shape=parallelogram;perimeter=parallelogramPerimeter;whiteSpace=wrap;html=1;fixedSize=1;size=40;rotation=-90;fillColor=#d5e8d4;strokeColor=#82b366;" vertex="1" parent="1">
          <mxGeometry x="400" y="210" width="120" height="60" as="geometry" />
        </mxCell>
        <mxCell id="vG2wr5A-QDdZpE7f0OCt-23" value="" style="shape=parallelogram;perimeter=parallelogramPerimeter;whiteSpace=wrap;html=1;fixedSize=1;size=40;rotation=-90;fillColor=#C0D1BF;strokeColor=#82b366;flipH=1;" vertex="1" parent="1">
          <mxGeometry x="460" y="130" width="120" height="60" as="geometry" />
        </mxCell>
        <mxCell id="vG2wr5A-QDdZpE7f0OCt-24" value="" style="shape=parallelogram;perimeter=parallelogramPerimeter;whiteSpace=wrap;html=1;fixedSize=1;size=40;rotation=-90;fillColor=#C0D1BF;strokeColor=#82b366;flipH=1;" vertex="1" parent="1">
          <mxGeometry x="460" y="210" width="120" height="60" as="geometry" />
        </mxCell>
        <mxCell id="vG2wr5A-QDdZpE7f0OCt-25" value="" style="shape=parallelogram;perimeter=parallelogramPerimeter;whiteSpace=wrap;html=1;fixedSize=1;size=40;rotation=-90;fillColor=#C0D1BF;strokeColor=#82b366;flipH=1;" vertex="1" parent="1">
          <mxGeometry x="520" y="90" width="120" height="60" as="geometry" />
        </mxCell>
        <mxCell id="vG2wr5A-QDdZpE7f0OCt-26" value="" style="shape=parallelogram;perimeter=parallelogramPerimeter;whiteSpace=wrap;html=1;fixedSize=1;size=40;rotation=-90;fillColor=#C0D1BF;strokeColor=#82b366;flipH=1;" vertex="1" parent="1">
          <mxGeometry x="520" y="170" width="120" height="60" as="geometry" />
        </mxCell>
        <mxCell id="vG2wr5A-QDdZpE7f0OCt-27" value="" style="rhombus;whiteSpace=wrap;html=1;fillColor=#DCF0DB;strokeColor=#82b366;" vertex="1" parent="1">
          <mxGeometry x="430" y="60" width="120" height="80" as="geometry" />
        </mxCell>
        <mxCell id="vG2wr5A-QDdZpE7f0OCt-28" value="" style="rhombus;whiteSpace=wrap;html=1;fillColor=#DCF0DB;strokeColor=#82b366;" vertex="1" parent="1">
          <mxGeometry x="490" y="20" width="120" height="80" as="geometry" />
        </mxCell>
        <mxCell id="vG2wr5A-QDdZpE7f0OCt-56" value="" style="shape=parallelogram;perimeter=parallelogramPerimeter;whiteSpace=wrap;html=1;fixedSize=1;size=40;rotation=-90;fillColor=#F0C7C5;strokeColor=#b85450;" vertex="1" parent="1">
          <mxGeometry x="650" y="310" width="120" height="60" as="geometry" />
        </mxCell>
        <mxCell id="vG2wr5A-QDdZpE7f0OCt-57" value="" style="shape=parallelogram;perimeter=parallelogramPerimeter;whiteSpace=wrap;html=1;fixedSize=1;size=40;rotation=-90;fillColor=#dae8fc;strokeColor=#6c8ebf;" vertex="1" parent="1">
          <mxGeometry x="710" y="350" width="120" height="60" as="geometry" />
        </mxCell>
        <mxCell id="vG2wr5A-QDdZpE7f0OCt-58" value="" style="shape=parallelogram;perimeter=parallelogramPerimeter;whiteSpace=wrap;html=1;fixedSize=1;size=40;rotation=-90;fillColor=#dae8fc;strokeColor=#6c8ebf;" vertex="1" parent="1">
          <mxGeometry x="770" y="390" width="120" height="60" as="geometry" />
        </mxCell>
        <mxCell id="vG2wr5A-QDdZpE7f0OCt-59" value="" style="shape=parallelogram;perimeter=parallelogramPerimeter;whiteSpace=wrap;html=1;fixedSize=1;size=40;rotation=-90;fillColor=#dae8fc;strokeColor=#6c8ebf;" vertex="1" parent="1">
          <mxGeometry x="650" y="390" width="120" height="60" as="geometry" />
        </mxCell>
        <mxCell id="vG2wr5A-QDdZpE7f0OCt-60" value="" style="shape=parallelogram;perimeter=parallelogramPerimeter;whiteSpace=wrap;html=1;fixedSize=1;size=40;rotation=-90;fillColor=#dae8fc;strokeColor=#6c8ebf;" vertex="1" parent="1">
          <mxGeometry x="710" y="430" width="120" height="60" as="geometry" />
        </mxCell>
        <mxCell id="vG2wr5A-QDdZpE7f0OCt-61" value="" style="shape=parallelogram;perimeter=parallelogramPerimeter;whiteSpace=wrap;html=1;fixedSize=1;size=40;rotation=-90;fillColor=#dae8fc;strokeColor=#6c8ebf;" vertex="1" parent="1">
          <mxGeometry x="770" y="470" width="120" height="60" as="geometry" />
        </mxCell>
        <mxCell id="vG2wr5A-QDdZpE7f0OCt-62" value="" style="shape=parallelogram;perimeter=parallelogramPerimeter;whiteSpace=wrap;html=1;fixedSize=1;size=40;rotation=-90;fillColor=#C9D6E8;strokeColor=#6c8ebf;flipH=1;" vertex="1" parent="1">
          <mxGeometry x="830" y="390" width="120" height="60" as="geometry" />
        </mxCell>
        <mxCell id="vG2wr5A-QDdZpE7f0OCt-63" value="" style="shape=parallelogram;perimeter=parallelogramPerimeter;whiteSpace=wrap;html=1;fixedSize=1;size=40;rotation=-90;fillColor=#C9D6E8;strokeColor=#6c8ebf;flipH=1;" vertex="1" parent="1">
          <mxGeometry x="830" y="470" width="120" height="60" as="geometry" />
        </mxCell>
        <mxCell id="vG2wr5A-QDdZpE7f0OCt-64" value="" style="shape=parallelogram;perimeter=parallelogramPerimeter;whiteSpace=wrap;html=1;fixedSize=1;size=40;rotation=-90;fillColor=#C9D6E8;strokeColor=#6c8ebf;flipH=1;" vertex="1" parent="1">
          <mxGeometry x="890" y="350" width="120" height="60" as="geometry" />
        </mxCell>
        <mxCell id="vG2wr5A-QDdZpE7f0OCt-65" value="" style="shape=parallelogram;perimeter=parallelogramPerimeter;whiteSpace=wrap;html=1;fixedSize=1;size=40;rotation=-90;fillColor=#C9D6E8;strokeColor=#6c8ebf;flipH=1;" vertex="1" parent="1">
          <mxGeometry x="890" y="430" width="120" height="60" as="geometry" />
        </mxCell>
        <mxCell id="vG2wr5A-QDdZpE7f0OCt-66" value="" style="rhombus;whiteSpace=wrap;html=1;fillColor=#E8F0FC;strokeColor=#6c8ebf;" vertex="1" parent="1">
          <mxGeometry x="800" y="320" width="120" height="80" as="geometry" />
        </mxCell>
        <mxCell id="vG2wr5A-QDdZpE7f0OCt-67" value="" style="rhombus;whiteSpace=wrap;html=1;fillColor=#E8F0FC;strokeColor=#6c8ebf;" vertex="1" parent="1">
          <mxGeometry x="740" y="280" width="120" height="80" as="geometry" />
        </mxCell>
        <mxCell id="vG2wr5A-QDdZpE7f0OCt-68" value="" style="rhombus;whiteSpace=wrap;html=1;fillColor=#f8cecc;strokeColor=#b85450;" vertex="1" parent="1">
          <mxGeometry x="680" y="240" width="120" height="80" as="geometry" />
        </mxCell>
        <mxCell id="vG2wr5A-QDdZpE7f0OCt-69" value="" style="rhombus;whiteSpace=wrap;html=1;fillColor=#E8F0FC;strokeColor=#6c8ebf;" vertex="1" parent="1">
          <mxGeometry x="860" y="280" width="120" height="80" as="geometry" />
        </mxCell>
        <mxCell id="vG2wr5A-QDdZpE7f0OCt-70" value="" style="rhombus;whiteSpace=wrap;html=1;fillColor=#E8F0FC;strokeColor=#6c8ebf;" vertex="1" parent="1">
          <mxGeometry x="800" y="240" width="120" height="80" as="geometry" />
        </mxCell>
        <mxCell id="vG2wr5A-QDdZpE7f0OCt-71" value="" style="rhombus;whiteSpace=wrap;html=1;fillColor=#f8cecc;strokeColor=#b85450;" vertex="1" parent="1">
          <mxGeometry x="740" y="200" width="120" height="80" as="geometry" />
        </mxCell>
        <mxCell id="vG2wr5A-QDdZpE7f0OCt-72" value="" style="shape=parallelogram;perimeter=parallelogramPerimeter;whiteSpace=wrap;html=1;fixedSize=1;size=40;rotation=-90;fillColor=#f0c7c5;strokeColor=#82b366;" vertex="1" parent="1">
          <mxGeometry x="920" y="130" width="120" height="60" as="geometry" />
        </mxCell>
        <mxCell id="vG2wr5A-QDdZpE7f0OCt-73" value="" style="shape=parallelogram;perimeter=parallelogramPerimeter;whiteSpace=wrap;html=1;fixedSize=1;size=40;rotation=-90;fillColor=#d5e8d4;strokeColor=#82b366;" vertex="1" parent="1">
          <mxGeometry x="920" y="210" width="120" height="60" as="geometry" />
        </mxCell>
        <mxCell id="vG2wr5A-QDdZpE7f0OCt-74" value="" style="shape=parallelogram;perimeter=parallelogramPerimeter;whiteSpace=wrap;html=1;fixedSize=1;size=40;rotation=-90;fillColor=#cfacaa;strokeColor=#82b366;flipH=1;" vertex="1" parent="1">
          <mxGeometry x="980" y="130" width="120" height="60" as="geometry" />
        </mxCell>
        <mxCell id="vG2wr5A-QDdZpE7f0OCt-75" value="" style="shape=parallelogram;perimeter=parallelogramPerimeter;whiteSpace=wrap;html=1;fixedSize=1;size=40;rotation=-90;fillColor=#C0D1BF;strokeColor=#82b366;flipH=1;" vertex="1" parent="1">
          <mxGeometry x="980" y="210" width="120" height="60" as="geometry" />
        </mxCell>
        <mxCell id="vG2wr5A-QDdZpE7f0OCt-76" value="" style="shape=parallelogram;perimeter=parallelogramPerimeter;whiteSpace=wrap;html=1;fixedSize=1;size=40;rotation=-90;fillColor=#cfacaa;strokeColor=#82b366;flipH=1;" vertex="1" parent="1">
          <mxGeometry x="1040" y="90" width="120" height="60" as="geometry" />
        </mxCell>
        <mxCell id="vG2wr5A-QDdZpE7f0OCt-77" value="" style="shape=parallelogram;perimeter=parallelogramPerimeter;whiteSpace=wrap;html=1;fixedSize=1;size=40;rotation=-90;fillColor=#C0D1BF;strokeColor=#82b366;flipH=1;" vertex="1" parent="1">
          <mxGeometry x="1040" y="170" width="120" height="60" as="geometry" />
        </mxCell>
        <mxCell id="vG2wr5A-QDdZpE7f0OCt-78" value="" style="rhombus;whiteSpace=wrap;html=1;fillColor=#f8cecc;strokeColor=#82b366;" vertex="1" parent="1">
          <mxGeometry x="950" y="60" width="120" height="80" as="geometry" />
        </mxCell>
        <mxCell id="vG2wr5A-QDdZpE7f0OCt-79" value="" style="rhombus;whiteSpace=wrap;html=1;fillColor=#f8cecc;strokeColor=#82b366;" vertex="1" parent="1">
          <mxGeometry x="1010" y="20" width="120" height="80" as="geometry" />
        </mxCell>
        <mxCell id="vG2wr5A-QDdZpE7f0OCt-80" value="" style="shape=parallelogram;perimeter=parallelogramPerimeter;whiteSpace=wrap;html=1;fixedSize=1;size=40;rotation=-90;fillColor=#dae8fc;strokeColor=#6c8ebf;" vertex="1" parent="1">
          <mxGeometry x="1168" y="310" width="120" height="60" as="geometry" />
        </mxCell>
        <mxCell id="vG2wr5A-QDdZpE7f0OCt-81" value="" style="shape=parallelogram;perimeter=parallelogramPerimeter;whiteSpace=wrap;html=1;fixedSize=1;size=40;rotation=-90;fillColor=#F0C7C5;strokeColor=#b85450;" vertex="1" parent="1">
          <mxGeometry x="1228" y="350" width="120" height="60" as="geometry" />
        </mxCell>
        <mxCell id="vG2wr5A-QDdZpE7f0OCt-82" value="" style="shape=parallelogram;perimeter=parallelogramPerimeter;whiteSpace=wrap;html=1;fixedSize=1;size=40;rotation=-90;fillColor=#dae8fc;strokeColor=#6c8ebf;" vertex="1" parent="1">
          <mxGeometry x="1288" y="390" width="120" height="60" as="geometry" />
        </mxCell>
        <mxCell id="vG2wr5A-QDdZpE7f0OCt-83" value="" style="shape=parallelogram;perimeter=parallelogramPerimeter;whiteSpace=wrap;html=1;fixedSize=1;size=40;rotation=-90;fillColor=#dae8fc;strokeColor=#6c8ebf;" vertex="1" parent="1">
          <mxGeometry x="1168" y="390" width="120" height="60" as="geometry" />
        </mxCell>
        <mxCell id="vG2wr5A-QDdZpE7f0OCt-84" value="" style="shape=parallelogram;perimeter=parallelogramPerimeter;whiteSpace=wrap;html=1;fixedSize=1;size=40;rotation=-90;fillColor=#dae8fc;strokeColor=#6c8ebf;" vertex="1" parent="1">
          <mxGeometry x="1228" y="430" width="120" height="60" as="geometry" />
        </mxCell>
        <mxCell id="vG2wr5A-QDdZpE7f0OCt-85" value="" style="shape=parallelogram;perimeter=parallelogramPerimeter;whiteSpace=wrap;html=1;fixedSize=1;size=40;rotation=-90;fillColor=#dae8fc;strokeColor=#6c8ebf;" vertex="1" parent="1">
          <mxGeometry x="1288" y="470" width="120" height="60" as="geometry" />
        </mxCell>
        <mxCell id="vG2wr5A-QDdZpE7f0OCt-86" value="" style="shape=parallelogram;perimeter=parallelogramPerimeter;whiteSpace=wrap;html=1;fixedSize=1;size=40;rotation=-90;fillColor=#C9D6E8;strokeColor=#6c8ebf;flipH=1;" vertex="1" parent="1">
          <mxGeometry x="1348" y="390" width="120" height="60" as="geometry" />
        </mxCell>
        <mxCell id="vG2wr5A-QDdZpE7f0OCt-87" value="" style="shape=parallelogram;perimeter=parallelogramPerimeter;whiteSpace=wrap;html=1;fixedSize=1;size=40;rotation=-90;fillColor=#C9D6E8;strokeColor=#6c8ebf;flipH=1;" vertex="1" parent="1">
          <mxGeometry x="1348" y="470" width="120" height="60" as="geometry" />
        </mxCell>
        <mxCell id="vG2wr5A-QDdZpE7f0OCt-88" value="" style="shape=parallelogram;perimeter=parallelogramPerimeter;whiteSpace=wrap;html=1;fixedSize=1;size=40;rotation=-90;fillColor=#C9D6E8;strokeColor=#6c8ebf;flipH=1;" vertex="1" parent="1">
          <mxGeometry x="1408" y="350" width="120" height="60" as="geometry" />
        </mxCell>
        <mxCell id="vG2wr5A-QDdZpE7f0OCt-89" value="" style="shape=parallelogram;perimeter=parallelogramPerimeter;whiteSpace=wrap;html=1;fixedSize=1;size=40;rotation=-90;fillColor=#C9D6E8;strokeColor=#6c8ebf;flipH=1;" vertex="1" parent="1">
          <mxGeometry x="1408" y="430" width="120" height="60" as="geometry" />
        </mxCell>
        <mxCell id="vG2wr5A-QDdZpE7f0OCt-90" value="" style="rhombus;whiteSpace=wrap;html=1;fillColor=#E8F0FC;strokeColor=#6c8ebf;" vertex="1" parent="1">
          <mxGeometry x="1318" y="320" width="120" height="80" as="geometry" />
        </mxCell>
        <mxCell id="vG2wr5A-QDdZpE7f0OCt-91" value="" style="rhombus;whiteSpace=wrap;html=1;fillColor=#f8cecc;strokeColor=#b85450;" vertex="1" parent="1">
          <mxGeometry x="1258" y="280" width="120" height="80" as="geometry" />
        </mxCell>
        <mxCell id="vG2wr5A-QDdZpE7f0OCt-92" value="" style="rhombus;whiteSpace=wrap;html=1;fillColor=#E8F0FC;strokeColor=#6c8ebf;" vertex="1" parent="1">
          <mxGeometry x="1198" y="240" width="120" height="80" as="geometry" />
        </mxCell>
        <mxCell id="vG2wr5A-QDdZpE7f0OCt-93" value="" style="rhombus;whiteSpace=wrap;html=1;fillColor=#E8F0FC;strokeColor=#6c8ebf;" vertex="1" parent="1">
          <mxGeometry x="1378" y="280" width="120" height="80" as="geometry" />
        </mxCell>
        <mxCell id="vG2wr5A-QDdZpE7f0OCt-94" value="" style="rhombus;whiteSpace=wrap;html=1;fillColor=#f8cecc;strokeColor=#b85450;" vertex="1" parent="1">
          <mxGeometry x="1318" y="240" width="120" height="80" as="geometry" />
        </mxCell>
        <mxCell id="vG2wr5A-QDdZpE7f0OCt-95" value="" style="rhombus;whiteSpace=wrap;html=1;fillColor=#E8F0FC;strokeColor=#6c8ebf;" vertex="1" parent="1">
          <mxGeometry x="1258" y="200" width="120" height="80" as="geometry" />
        </mxCell>
        <mxCell id="vG2wr5A-QDdZpE7f0OCt-96" value="" style="shape=parallelogram;perimeter=parallelogramPerimeter;whiteSpace=wrap;html=1;fixedSize=1;size=40;rotation=-90;fillColor=#f0c7c5;strokeColor=#82b366;" vertex="1" parent="1">
          <mxGeometry x="1438" y="130" width="120" height="60" as="geometry" />
        </mxCell>
        <mxCell id="vG2wr5A-QDdZpE7f0OCt-97" value="" style="shape=parallelogram;perimeter=parallelogramPerimeter;whiteSpace=wrap;html=1;fixedSize=1;size=40;rotation=-90;fillColor=#d5e8d4;strokeColor=#82b366;" vertex="1" parent="1">
          <mxGeometry x="1438" y="210" width="120" height="60" as="geometry" />
        </mxCell>
        <mxCell id="vG2wr5A-QDdZpE7f0OCt-98" value="" style="shape=parallelogram;perimeter=parallelogramPerimeter;whiteSpace=wrap;html=1;fixedSize=1;size=40;rotation=-90;fillColor=#cfacaa;strokeColor=#82b366;flipH=1;" vertex="1" parent="1">
          <mxGeometry x="1498" y="130" width="120" height="60" as="geometry" />
        </mxCell>
        <mxCell id="vG2wr5A-QDdZpE7f0OCt-99" value="" style="shape=parallelogram;perimeter=parallelogramPerimeter;whiteSpace=wrap;html=1;fixedSize=1;size=40;rotation=-90;fillColor=#C0D1BF;strokeColor=#82b366;flipH=1;" vertex="1" parent="1">
          <mxGeometry x="1498" y="210" width="120" height="60" as="geometry" />
        </mxCell>
        <mxCell id="vG2wr5A-QDdZpE7f0OCt-100" value="" style="shape=parallelogram;perimeter=parallelogramPerimeter;whiteSpace=wrap;html=1;fixedSize=1;size=40;rotation=-90;fillColor=#cfacaa;strokeColor=#82b366;flipH=1;" vertex="1" parent="1">
          <mxGeometry x="1558" y="90" width="120" height="60" as="geometry" />
        </mxCell>
        <mxCell id="vG2wr5A-QDdZpE7f0OCt-101" value="" style="shape=parallelogram;perimeter=parallelogramPerimeter;whiteSpace=wrap;html=1;fixedSize=1;size=40;rotation=-90;fillColor=#C0D1BF;strokeColor=#82b366;flipH=1;" vertex="1" parent="1">
          <mxGeometry x="1558" y="170" width="120" height="60" as="geometry" />
        </mxCell>
        <mxCell id="vG2wr5A-QDdZpE7f0OCt-102" value="" style="rhombus;whiteSpace=wrap;html=1;fillColor=#f8cecc;strokeColor=#82b366;" vertex="1" parent="1">
          <mxGeometry x="1468" y="60" width="120" height="80" as="geometry" />
        </mxCell>
        <mxCell id="vG2wr5A-QDdZpE7f0OCt-103" value="" style="rhombus;whiteSpace=wrap;html=1;fillColor=#f8cecc;strokeColor=#82b366;" vertex="1" parent="1">
          <mxGeometry x="1528" y="20" width="120" height="80" as="geometry" />
        </mxCell>
        <mxCell id="vG2wr5A-QDdZpE7f0OCt-104" value="" style="shape=parallelogram;perimeter=parallelogramPerimeter;whiteSpace=wrap;html=1;fixedSize=1;size=40;rotation=-90;fillColor=#dae8fc;strokeColor=#6c8ebf;" vertex="1" parent="1">
          <mxGeometry x="1688" y="310" width="120" height="60" as="geometry" />
        </mxCell>
        <mxCell id="vG2wr5A-QDdZpE7f0OCt-105" value="" style="shape=parallelogram;perimeter=parallelogramPerimeter;whiteSpace=wrap;html=1;fixedSize=1;size=40;rotation=-90;fillColor=#dae8fc;strokeColor=#6c8ebf;" vertex="1" parent="1">
          <mxGeometry x="1748" y="350" width="120" height="60" as="geometry" />
        </mxCell>
        <mxCell id="vG2wr5A-QDdZpE7f0OCt-106" value="" style="shape=parallelogram;perimeter=parallelogramPerimeter;whiteSpace=wrap;html=1;fixedSize=1;size=40;rotation=-90;fillColor=#F0C7C5;strokeColor=#b85450;" vertex="1" parent="1">
          <mxGeometry x="1808" y="390" width="120" height="60" as="geometry" />
        </mxCell>
        <mxCell id="vG2wr5A-QDdZpE7f0OCt-107" value="" style="shape=parallelogram;perimeter=parallelogramPerimeter;whiteSpace=wrap;html=1;fixedSize=1;size=40;rotation=-90;fillColor=#dae8fc;strokeColor=#6c8ebf;" vertex="1" parent="1">
          <mxGeometry x="1688" y="390" width="120" height="60" as="geometry" />
        </mxCell>
        <mxCell id="vG2wr5A-QDdZpE7f0OCt-108" value="" style="shape=parallelogram;perimeter=parallelogramPerimeter;whiteSpace=wrap;html=1;fixedSize=1;size=40;rotation=-90;fillColor=#dae8fc;strokeColor=#6c8ebf;" vertex="1" parent="1">
          <mxGeometry x="1748" y="430" width="120" height="60" as="geometry" />
        </mxCell>
        <mxCell id="vG2wr5A-QDdZpE7f0OCt-109" value="" style="shape=parallelogram;perimeter=parallelogramPerimeter;whiteSpace=wrap;html=1;fixedSize=1;size=40;rotation=-90;fillColor=#dae8fc;strokeColor=#6c8ebf;" vertex="1" parent="1">
          <mxGeometry x="1808" y="470" width="120" height="60" as="geometry" />
        </mxCell>
        <mxCell id="vG2wr5A-QDdZpE7f0OCt-110" value="" style="shape=parallelogram;perimeter=parallelogramPerimeter;whiteSpace=wrap;html=1;fixedSize=1;size=40;rotation=-90;fillColor=#CFACAA;strokeColor=#b85450;flipH=1;" vertex="1" parent="1">
          <mxGeometry x="1868" y="390" width="120" height="60" as="geometry" />
        </mxCell>
        <mxCell id="vG2wr5A-QDdZpE7f0OCt-111" value="" style="shape=parallelogram;perimeter=parallelogramPerimeter;whiteSpace=wrap;html=1;fixedSize=1;size=40;rotation=-90;fillColor=#C9D6E8;strokeColor=#6c8ebf;flipH=1;" vertex="1" parent="1">
          <mxGeometry x="1868" y="470" width="120" height="60" as="geometry" />
        </mxCell>
        <mxCell id="vG2wr5A-QDdZpE7f0OCt-112" value="" style="shape=parallelogram;perimeter=parallelogramPerimeter;whiteSpace=wrap;html=1;fixedSize=1;size=40;rotation=-90;fillColor=#CFACAA;strokeColor=#b85450;flipH=1;" vertex="1" parent="1">
          <mxGeometry x="1928" y="350" width="120" height="60" as="geometry" />
        </mxCell>
        <mxCell id="vG2wr5A-QDdZpE7f0OCt-113" value="" style="shape=parallelogram;perimeter=parallelogramPerimeter;whiteSpace=wrap;html=1;fixedSize=1;size=40;rotation=-90;fillColor=#C9D6E8;strokeColor=#6c8ebf;flipH=1;" vertex="1" parent="1">
          <mxGeometry x="1928" y="430" width="120" height="60" as="geometry" />
        </mxCell>
        <mxCell id="vG2wr5A-QDdZpE7f0OCt-114" value="" style="rhombus;whiteSpace=wrap;html=1;fillColor=#f8cecc;strokeColor=#b85450;" vertex="1" parent="1">
          <mxGeometry x="1838" y="320" width="120" height="80" as="geometry" />
        </mxCell>
        <mxCell id="vG2wr5A-QDdZpE7f0OCt-115" value="" style="rhombus;whiteSpace=wrap;html=1;fillColor=#E8F0FC;strokeColor=#6c8ebf;" vertex="1" parent="1">
          <mxGeometry x="1778" y="280" width="120" height="80" as="geometry" />
        </mxCell>
        <mxCell id="vG2wr5A-QDdZpE7f0OCt-116" value="" style="rhombus;whiteSpace=wrap;html=1;fillColor=#E8F0FC;strokeColor=#6c8ebf;" vertex="1" parent="1">
          <mxGeometry x="1718" y="240" width="120" height="80" as="geometry" />
        </mxCell>
        <mxCell id="vG2wr5A-QDdZpE7f0OCt-117" value="" style="rhombus;whiteSpace=wrap;html=1;fillColor=#f8cecc;strokeColor=#b85450;" vertex="1" parent="1">
          <mxGeometry x="1898" y="280" width="120" height="80" as="geometry" />
        </mxCell>
        <mxCell id="vG2wr5A-QDdZpE7f0OCt-118" value="" style="rhombus;whiteSpace=wrap;html=1;fillColor=#E8F0FC;strokeColor=#6c8ebf;" vertex="1" parent="1">
          <mxGeometry x="1838" y="240" width="120" height="80" as="geometry" />
        </mxCell>
        <mxCell id="vG2wr5A-QDdZpE7f0OCt-119" value="" style="rhombus;whiteSpace=wrap;html=1;fillColor=#E8F0FC;strokeColor=#6c8ebf;" vertex="1" parent="1">
          <mxGeometry x="1778" y="200" width="120" height="80" as="geometry" />
        </mxCell>
        <mxCell id="vG2wr5A-QDdZpE7f0OCt-120" value="" style="shape=parallelogram;perimeter=parallelogramPerimeter;whiteSpace=wrap;html=1;fixedSize=1;size=40;rotation=-90;fillColor=#f0c7c5;strokeColor=#82b366;" vertex="1" parent="1">
          <mxGeometry x="1958" y="130" width="120" height="60" as="geometry" />
        </mxCell>
        <mxCell id="vG2wr5A-QDdZpE7f0OCt-121" value="" style="shape=parallelogram;perimeter=parallelogramPerimeter;whiteSpace=wrap;html=1;fixedSize=1;size=40;rotation=-90;fillColor=#d5e8d4;strokeColor=#82b366;" vertex="1" parent="1">
          <mxGeometry x="1958" y="210" width="120" height="60" as="geometry" />
        </mxCell>
        <mxCell id="vG2wr5A-QDdZpE7f0OCt-122" value="" style="shape=parallelogram;perimeter=parallelogramPerimeter;whiteSpace=wrap;html=1;fixedSize=1;size=40;rotation=-90;fillColor=#cfacaa;strokeColor=#82b366;flipH=1;" vertex="1" parent="1">
          <mxGeometry x="2018" y="130" width="120" height="60" as="geometry" />
        </mxCell>
        <mxCell id="vG2wr5A-QDdZpE7f0OCt-123" value="" style="shape=parallelogram;perimeter=parallelogramPerimeter;whiteSpace=wrap;html=1;fixedSize=1;size=40;rotation=-90;fillColor=#C0D1BF;strokeColor=#82b366;flipH=1;" vertex="1" parent="1">
          <mxGeometry x="2018" y="210" width="120" height="60" as="geometry" />
        </mxCell>
        <mxCell id="vG2wr5A-QDdZpE7f0OCt-124" value="" style="shape=parallelogram;perimeter=parallelogramPerimeter;whiteSpace=wrap;html=1;fixedSize=1;size=40;rotation=-90;fillColor=#cfacaa;strokeColor=#82b366;flipH=1;" vertex="1" parent="1">
          <mxGeometry x="2078" y="90" width="120" height="60" as="geometry" />
        </mxCell>
        <mxCell id="vG2wr5A-QDdZpE7f0OCt-125" value="" style="shape=parallelogram;perimeter=parallelogramPerimeter;whiteSpace=wrap;html=1;fixedSize=1;size=40;rotation=-90;fillColor=#C0D1BF;strokeColor=#82b366;flipH=1;" vertex="1" parent="1">
          <mxGeometry x="2078" y="170" width="120" height="60" as="geometry" />
        </mxCell>
        <mxCell id="vG2wr5A-QDdZpE7f0OCt-126" value="" style="rhombus;whiteSpace=wrap;html=1;fillColor=#f8cecc;strokeColor=#82b366;" vertex="1" parent="1">
          <mxGeometry x="1988" y="60" width="120" height="80" as="geometry" />
        </mxCell>
        <mxCell id="vG2wr5A-QDdZpE7f0OCt-127" value="" style="rhombus;whiteSpace=wrap;html=1;fillColor=#f8cecc;strokeColor=#82b366;" vertex="1" parent="1">
          <mxGeometry x="2048" y="20" width="120" height="80" as="geometry" />
        </mxCell>
        <mxCell id="vG2wr5A-QDdZpE7f0OCt-128" value="&lt;font style=&quot;font-size: 24px;&quot;&gt;Batch&lt;/font&gt;" style="shape=curlyBracket;whiteSpace=wrap;html=1;rounded=1;labelPosition=left;verticalLabelPosition=middle;align=right;verticalAlign=middle;" vertex="1" parent="1">
          <mxGeometry x="110" y="280" width="20" height="160" as="geometry" />
        </mxCell>
        <mxCell id="vG2wr5A-QDdZpE7f0OCt-129" value="&lt;font style=&quot;font-size: 24px;&quot;&gt;Secuencia&lt;/font&gt;" style="shape=curlyBracket;whiteSpace=wrap;html=1;rounded=1;labelPosition=left;verticalLabelPosition=middle;align=right;verticalAlign=middle;rotation=-55;" vertex="1" parent="1">
          <mxGeometry x="221.81" y="414.26" width="20" height="210" as="geometry" />
        </mxCell>
        <mxCell id="vG2wr5A-QDdZpE7f0OCt-134" value="" style="shape=curlyBracket;rounded=1;labelPosition=left;verticalLabelPosition=middle;align=right;verticalAlign=middle;rotation=-125;whiteSpace=wrap;html=1;" vertex="1" parent="1">
          <mxGeometry x="406.29" y="466.4" width="20" height="150" as="geometry" />
        </mxCell>
        <mxCell id="vG2wr5A-QDdZpE7f0OCt-135" value="&lt;font style=&quot;font-size: 24px;&quot;&gt;Embedding size&lt;/font&gt;" style="text;html=1;strokeColor=none;fillColor=none;align=center;verticalAlign=middle;whiteSpace=wrap;rounded=0;" vertex="1" parent="1">
          <mxGeometry x="460" y="555" width="60" height="30" as="geometry" />
        </mxCell>
        <mxCell id="vG2wr5A-QDdZpE7f0OCt-137" value="" style="shape=parallelogram;perimeter=parallelogramPerimeter;whiteSpace=wrap;html=1;fixedSize=1;size=40;rotation=-90;fillColor=#F2E6C2;strokeColor=#d6b656;" vertex="1" parent="1">
          <mxGeometry x="940" y="900" width="120" height="60" as="geometry" />
        </mxCell>
        <mxCell id="vG2wr5A-QDdZpE7f0OCt-139" value="" style="shape=parallelogram;perimeter=parallelogramPerimeter;whiteSpace=wrap;html=1;fixedSize=1;size=40;rotation=-90;fillColor=#F2E6C2;strokeColor=#d6b656;" vertex="1" parent="1">
          <mxGeometry x="1060" y="980" width="120" height="60" as="geometry" />
        </mxCell>
        <mxCell id="vG2wr5A-QDdZpE7f0OCt-140" value="" style="shape=parallelogram;perimeter=parallelogramPerimeter;whiteSpace=wrap;html=1;fixedSize=1;size=40;rotation=-90;fillColor=#f2e6c2;strokeColor=#d6b656;" vertex="1" parent="1">
          <mxGeometry x="940" y="980" width="120" height="60" as="geometry" />
        </mxCell>
        <mxCell id="vG2wr5A-QDdZpE7f0OCt-141" value="" style="shape=parallelogram;perimeter=parallelogramPerimeter;whiteSpace=wrap;html=1;fixedSize=1;size=40;rotation=-90;fillColor=#f2e6c2;strokeColor=#d6b656;" vertex="1" parent="1">
          <mxGeometry x="1000" y="1020" width="120" height="60" as="geometry" />
        </mxCell>
        <mxCell id="vG2wr5A-QDdZpE7f0OCt-142" value="" style="shape=parallelogram;perimeter=parallelogramPerimeter;whiteSpace=wrap;html=1;fixedSize=1;size=40;rotation=-90;fillColor=#f2e6c2;strokeColor=#d6b656;" vertex="1" parent="1">
          <mxGeometry x="1060" y="1060" width="120" height="60" as="geometry" />
        </mxCell>
        <mxCell id="vG2wr5A-QDdZpE7f0OCt-143" value="" style="shape=parallelogram;perimeter=parallelogramPerimeter;whiteSpace=wrap;html=1;fixedSize=1;size=40;rotation=-90;fillColor=#D1C6A7;strokeColor=#d6b656;flipH=1;" vertex="1" parent="1">
          <mxGeometry x="1120" y="980" width="120" height="60" as="geometry" />
        </mxCell>
        <mxCell id="vG2wr5A-QDdZpE7f0OCt-144" value="" style="shape=parallelogram;perimeter=parallelogramPerimeter;whiteSpace=wrap;html=1;fixedSize=1;size=40;rotation=-90;fillColor=#D1C6A7;strokeColor=#d6b656;flipH=1;" vertex="1" parent="1">
          <mxGeometry x="1120" y="1060" width="120" height="60" as="geometry" />
        </mxCell>
        <mxCell id="vG2wr5A-QDdZpE7f0OCt-147" value="" style="rhombus;whiteSpace=wrap;html=1;fillColor=#fff2cc;strokeColor=#d6b656;" vertex="1" parent="1">
          <mxGeometry x="1090" y="910" width="120" height="80" as="geometry" />
        </mxCell>
        <mxCell id="vG2wr5A-QDdZpE7f0OCt-149" value="" style="rhombus;whiteSpace=wrap;html=1;fillColor=#fff2cc;strokeColor=#d6b656;" vertex="1" parent="1">
          <mxGeometry x="970" y="830" width="120" height="80" as="geometry" />
        </mxCell>
        <mxCell id="vG2wr5A-QDdZpE7f0OCt-153" value="" style="shape=parallelogram;perimeter=parallelogramPerimeter;whiteSpace=wrap;html=1;fixedSize=1;size=40;rotation=-90;fillColor=#F2E6C2;strokeColor=#d6b656;" vertex="1" parent="1">
          <mxGeometry x="1000" y="940" width="120" height="60" as="geometry" />
        </mxCell>
        <mxCell id="vG2wr5A-QDdZpE7f0OCt-154" value="" style="rhombus;whiteSpace=wrap;html=1;fillColor=#fff2cc;strokeColor=#d6b656;" vertex="1" parent="1">
          <mxGeometry x="1030" y="870" width="120" height="80" as="geometry" />
        </mxCell>
      </root>
    </mxGraphModel>
  </diagram>
</mxfile>
